<?xml version="1.0" encoding="UTF-8" standalone="no"?>
<!-- Created with Inkscape (http://www.inkscape.org/) -->

<svg
   version="1.1"
   style="background-color:#236db4;"
   id="svg90"
   width="730px"
   height="383px"
   viewBox="0 0 682.66669 682.66669"
   sodipodi:docname="crm"
   inkscape:version="1.2.1 (9c6d41e4, 2022-07-14)"
   xmlns:inkscape="http://www.inkscape.org/namespaces/inkscape"
   xmlns:sodipodi="http://sodipodi.sourceforge.net/DTD/sodipodi-0.dtd"
   xmlns="http://www.w3.org/2000/svg"
   xmlns:svg="http://www.w3.org/2000/svg">
  <defs
     id="defs94" />
  <sodipodi:namedview
     id="namedview92"
     pagecolor="#ffffff"
     bordercolor="#000000"
     borderopacity="0.25"
     inkscape:showpageshadow="2"
     inkscape:pageopacity="0.0"
     inkscape:pagecheckerboard="0"
     inkscape:deskcolor="#d1d1d1"
     showgrid="false"
     inkscape:zoom="0.34570311"
     inkscape:cx="374.59888"
     inkscape:cy="358.68928"
     inkscape:window-width="1440"
     inkscape:window-height="786"
     inkscape:window-x="0"
     inkscape:window-y="25"
     inkscape:window-maximized="0"
     inkscape:current-layer="g96" />
  <g
     inkscape:groupmode="layer"
     inkscape:label="Image"
     id="g96">
    <g
       id="g7998"
       transform="translate(1.223186e-6,2.8926556)"
       style="fill:#236db4;fill-opacity:0.89803922;stroke:#236db4;stroke-opacity:0.89803922">
      <path
         style="fill:white;fill-opacity:0.898039;stroke:#236db4;stroke-width:1.33333;stroke-opacity:0.898039"
         d="M 188.40731,580.13456 C 139.52695,573.62374 99.490896,553.68547 64.583816,518.46948 39.748916,493.4148 25.113066,469.94673 13.882726,437.17203 9.0598657,423.09698 4.0204857,399.58083 3.7108157,389.7051 l -0.17559,-5.59981 -0.86091,5.99626 c -0.73717,5.13441 -1.00635,4.03126 -1.87280998,-7.67499 -1.14293,-15.44149 0.63311998,-45.5984 2.06076998,-34.99126 l 0.80804,6.00362 0.22492,-5.59805 c 0.61254,-15.24548 9.4395603,-47.82699 18.2109803,-67.21877 16.87138,-37.29906 49.88409,-73.23888 87.379794,-95.12739 22.09803,-12.89997 51.04004,-22.54657 77.81596,-25.93667 54.36707,-6.88342 106.50082,6.28576 152.12357,38.42697 10.537,7.4233 147.1465,144.33335 152.7108,153.04667 5.6782,8.89197 9.2226,20.43121 10.0145,32.60346 1.3122,20.1725 -5.7588,38.59599 -20.443,53.26413 -22.0024,21.97834 -54.5677,26.70485 -82.6117,11.99023 -6.6797,-3.50486 -18.6189,-14.79671 -68.4906,-64.77736 -33.22031,-33.29289 -62.49567,-61.65094 -65.05634,-63.01787 -6.91925,-3.6936 -24.14789,-3.54725 -31.33481,0.26618 -6.31935,3.35309 -12.78919,9.87836 -16.21689,16.35581 -3.6977,6.9877 -3.53727,22.79528 0.31148,30.69126 2.106,4.32057 21.90806,25.09281 69.67869,73.09246 58.35877,58.63857 68.41607,68.17538 80.11497,75.96907 20.6091,13.72951 40.5914,22.25598 63.7965,27.22201 14.3428,3.06944 42.4037,4.21461 57.3236,2.33941 76.0576,-9.55934 136.3193,-65.12264 152.6837,-140.77945 3.4672,-16.0298 4.1741,-42.09269 1.6244,-59.89576 -10.7225,-74.87139 -64.9832,-132.77436 -140.1524,-149.56032 -15.1182,-3.37602 -54.7378,-3.63701 -68.6114,-0.45197 -24.6134,5.65068 -23.8598,5.58145 -29.3583,2.69719 -9.5734,-5.0218 -12.5147,-17.22651 -6.2046,-25.74513 3.0745,-4.1505 15.0609,-8.40062 32.6656,-11.58252 19.2579,-3.48071 57.2377,-2.9789 76.6832,1.01318 43.1272,8.85387 78.5043,28.01959 109.5115,59.32841 24.5238,24.76241 40.5413,50.63362 51.0155,82.39969 4.9066,14.88072 9.5781,36.80052 9.876,46.34051 l 0.1756,5.62022 0.8609,-5.99627 c 0.7371,-5.1344 1.0063,-4.03126 1.8728,7.67499 1.1429,15.4415 -0.6332,45.59841 -2.0608,34.99127 l -0.808,-6.00362 -0.225,5.59805 c -0.691,17.19843 -10.0276,49.92667 -20.3291,71.26124 -19.6667,40.72972 -58.4173,79.00211 -99.7525,98.52152 -70.026,33.06776 -150.8345,25.59376 -215.4487,-19.9269 -10.537,-7.42331 -147.14652,-144.33336 -152.71072,-153.04667 -5.6783,-8.89197 -9.2227,-20.43122 -10.01453,-32.60346 -3.02795,-46.5471 40.49809,-82.6006 86.40017,-71.56705 18.30751,4.40062 19.91555,5.74494 85.14468,71.18162 45.2648,45.40882 61.9008,61.27864 66.3883,63.33061 16.3623,7.48188 36.937,0.13378 45.8123,-16.36143 4.1098,-7.63834 4.1571,-23.02531 0.096,-31.35613 -2.106,-4.32058 -21.9081,-25.09281 -69.6787,-73.09247 -58.3588,-58.63856 -68.416,-68.17537 -80.115,-75.96906 -20.73429,-13.81296 -40.37622,-22.17042 -64.46226,-27.42812 -15.90503,-3.47187 -53.39765,-3.63704 -69.33266,-0.30543 -35.40346,7.40199 -65.92737,23.66584 -90.931034,48.45018 -32.1181,31.83635 -49.80446,71.67485 -52.0113,117.1554 -4.24959,87.57893 54.10817,163.32446 140.741384,182.67543 22.11455,4.93966 55.75491,4.14519 80.00493,-1.88945 8.72267,-2.17064 11.57008,-2.38362 15.5737,-1.16486 11.74728,3.57604 15.80072,18.04985 7.6361,27.26661 -3.24436,3.66248 -6.11974,5.10597 -14.70403,7.38174 -22.1462,5.87115 -55.81749,7.98645 -78.67156,4.9423 z"
         id="path8000" />
    </g>
    <g
       id="g7623"
       transform="translate(717.37855,-23.141244)"
       style="fill:#00ffff;fill-opacity:1;stroke:#236db4;stroke-opacity:0.89803922" />
  </g>
</svg>
