<?xml version="1.0" encoding="utf-8"?>
<!-- Generator: Adobe Illustrator 24.1.0, SVG Export Plug-In . SVG Version: 6.00 Build 0)  -->
<svg version="1.1" id="Layer_1" xmlns="http://www.w3.org/2000/svg" xmlns:xlink="http://www.w3.org/1999/xlink" x="0px" y="0px"
	 width="730px"
   	height="383px"
   	viewBox="0 0 1024 1024" style="background-color:black;enable-background:new 0 0 1024 1024;" xml:space="preserve">
<style type="text/css">
	.st0{fill:#089949;}
	.st1{fill:#226DB4;}
</style>
<g>
	<g>
		<path class="st0" d="M578.2,757h-6.5c-16.6,0-30-13.4-30-30s13.4-30,30-30h6.5c60.7,0,110-49.3,110-110V437
			c0-60.6-49.3-110-110-110h-6.5c-16.6,0-30-13.4-30-30s13.4-30,30-30h6.5c93.7,0,170,76.3,170,170V587
			C748.2,680.7,672,757,578.2,757z"/>
	</g>
	<g>
		<path class="st0" d="M451.8,757H320.3c-16.6,0-30-13.4-30-30V297c0-16.6,13.4-30,30-30h131.5c16.6,0,30,13.4,30,30s-13.4,30-30,30
			H350.3V697h101.5c16.6,0,30,13.4,30,30S468.4,757,451.8,757z"/>
	</g>
	<path class="st1" d="M993.6,482c-32.5,0-59-26.5-59-59V260c0-110.3-89.7-200-200-200H571.7c-16.6,0-30,13.4-30,30s13.4,30,30,30
		h162.9c77.2,0,140,62.8,140,140V423c0,35.3,15.4,67,39.9,88.8c-24.7,21.8-40.4,53.8-40.4,89.3v163c0,77.2-62.8,140-140,140H571.7
		c-16.6,0-30,13.4-30,30s13.4,30,30,30h162.3c110.3,0,200-89.7,200-200V601c0-32.5,26.5-59,59-59h0.5c16.6,0,30-13.4,30-30
		S1010.2,482,993.6,482z"/>
	<path class="st1" d="M452.2,904H289.4c-77.2,0-140-62.8-140-140V601c0-35.3-15.4-67-39.9-88.8c24.7-21.8,40.4-53.8,40.4-89.3V260
		c0-77.2,62.8-140,140-140h161.9c16.6,0,30-13.4,30-30s-13.4-30-30-30H289.9c-110.3,0-200,89.7-200,200V423c0,32.5-26.5,59-59,59
		h-0.5c-16.6,0-30,13.4-30,30c0,16.6,13.4,30,30,30l0,0c32.5,0,59,26.5,59,59v163c0,110.3,89.7,200,200,200h162.8
		c16.6,0,30-13.4,30-30S468.8,904,452.2,904z"/>
	<text>Deluge</text>
</g>

</svg>
