<svg xmlns="http://www.w3.org/2000/svg" version="1.1" xmlns:xlink="http://www.w3.org/1999/xlink" xmlns:svgjs="http://svgjs.com/svgjs" width="1000" height="1000"><rect width="1000" height="1000" rx="150" ry="150" fill="#ffffff"></rect><g transform="matrix(1,0,0,1,0,0)"><svg xmlns="http://www.w3.org/2000/svg" version="1.1" xmlns:xlink="http://www.w3.org/1999/xlink" xmlns:svgjs="http://svgjs.com/svgjs" width="114.715mm" height="115.911mm"><svg width="114.715mm" height="115.911mm" viewBox="0 0 114.715 115.911" version="1.1" id="svg249" inkscape:version="1.2.1 (9c6d41e4, 2022-07-14)" sodipodi:docname="logo.svg" xmlns:inkscape="http://www.inkscape.org/namespaces/inkscape" xmlns:sodipodi="http://sodipodi.sourceforge.net/DTD/sodipodi-0.dtd" xmlns="http://www.w3.org/2000/svg" xmlns:svg="http://www.w3.org/2000/svg">
  <sodipodi:namedview id="namedview251" pagecolor="#ffffff" bordercolor="#000000" borderopacity="0.25" inkscape:showpageshadow="2" inkscape:pageopacity="0.0" inkscape:pagecheckerboard="0" inkscape:deskcolor="#d1d1d1" inkscape:document-units="mm" showgrid="false" inkscape:zoom="0.37508895" inkscape:cx="237.27705" inkscape:cy="246.60817" inkscape:window-width="1440" inkscape:window-height="757" inkscape:window-x="0" inkscape:window-y="25" inkscape:window-maximized="0" inkscape:current-layer="layer1"></sodipodi:namedview>
  <defs id="defs246"></defs>
  <g inkscape:label="Calque 1" inkscape:groupmode="layer" id="layer1" style="display:inline" transform="translate(-54.095895,-78.75)">
    <g id="g9294" style="display:inline" transform="translate(8.4646588,4.2323294)">
      <path id="rect1763" style="fill:none;fill-rule:evenodd;stroke:#f03e58;stroke-width:2.5;stroke-linejoin:round;stroke-dasharray:none;stroke-opacity:1;paint-order:markers stroke fill" inkscape:label="rect305" d="m 76,80 h 56.707 c 11.53821,0 16.68148,8.478006 17.293,20 l 3.53389,66.58421 c 0.61152,11.52198 -9.28868,20.82708 -20.82689,20.82708 H 76.199965 c -11.538206,0 -21.438816,-9.30511 -20.827086,-20.82708 L 58.908,100 C 59.519731,88.478018 64.461794,80 76,80 Z" sodipodi:nodetypes="sssssssss"></path>
      <path id="rect1763-2" style="fill:none;fill-opacity:1;fill-rule:evenodd;stroke:#01a768;stroke-width:2.69022;stroke-linejoin:round;stroke-dasharray:none;stroke-opacity:1;paint-order:markers stroke fill" inkscape:label="rect305" d="M 93.117823,93.268417 H 134.1876 c 8.35651,0 12.0815,7.159323 12.52441,16.889133 l 2.55937,56.22754 c 0.44291,9.72984 -6.72727,17.58758 -15.08378,17.58758 H 93.262641 c -8.356497,0 -15.526981,-7.85776 -15.083939,-17.58758 l 2.560306,-56.22754 c 0.443044,-9.7298 4.022314,-16.889133 12.378815,-16.889133 z" sodipodi:nodetypes="sssssssss"></path>
      <path id="rect1763-2-6" style="fill:none;fill-opacity:1;fill-rule:evenodd;stroke:#03a9f5;stroke-width:2.7911;stroke-linejoin:round;stroke-dasharray:none;stroke-opacity:1;paint-order:markers stroke fill" inkscape:label="rect305" d="m 101.83809,104.77146 h 31.41442 c 6.39192,0 9.24117,5.8973 9.57996,13.91201 l 1.95768,46.31605 c 0.33878,8.01471 -5.14572,14.48733 -11.53764,14.48733 h -31.30364 c -6.391913,0 -11.876641,-6.47264 -11.537755,-14.48733 l 1.958387,-46.31605 c 0.338885,-8.0147 3.076686,-13.91201 9.468588,-13.91201 z" sodipodi:nodetypes="sssssssss"></path>
      <path id="rect1763-2-6-6" style="fill:none;fill-opacity:1;fill-rule:evenodd;stroke:#fed600;stroke-width:2.92954;stroke-linejoin:round;stroke-dasharray:none;stroke-opacity:1;paint-order:markers stroke fill" inkscape:label="rect305" d="m 109.03992,116.63572 h 22.71449 c 4.62175,0 6.68194,4.65097 6.92689,10.97185 l 1.41552,36.5276 c 0.24496,6.32089 -3.72066,11.42558 -8.34241,11.42558 h -22.63439 c -4.62174,0 -8.58754,-5.10472 -8.3425,-11.42558 l 1.41603,-36.5276 c 0.24503,-6.32087 2.22462,-10.97185 6.84637,-10.97185 z" sodipodi:nodetypes="sssssssss"></path>
      <text xml:space="preserve" style="font-style:normal;font-variant:normal;font-weight:600;font-stretch:condensed;font-size:3.175px;font-family:'Avenir Next Condensed';-inkscape-font-specification:'Avenir Next Condensed, Semi-Bold Condensed';font-variant-ligatures:normal;font-variant-caps:normal;font-variant-numeric:normal;font-variant-east-asian:normal;white-space:pre;inline-size:14.4649;display:inline;fill:#f03e58;fill-opacity:1;fill-rule:evenodd;stroke:none;stroke-width:2.5;stroke-linejoin:round;stroke-dasharray:none;stroke-opacity:1;paint-order:markers stroke fill" x="91.770622" y="204.87392" id="text5663" transform="matrix(-9.1317572,4.4707422,-4.9815942,-10.269998,1983.9254,1817.0465)" svgjs:data="{&quot;leading&quot;:&quot;1.3&quot;}"><tspan x="91.770622" y="204.87392" id="tspan9423" svgjs:data="{&quot;leading&quot;:&quot;1.3&quot;}">&lt;</tspan></text>
      <text xml:space="preserve" style="font-style:normal;font-variant:normal;font-weight:600;font-stretch:condensed;font-size:3.175px;font-family:'Avenir Next Condensed';-inkscape-font-specification:'Avenir Next Condensed, Semi-Bold Condensed';font-variant-ligatures:normal;font-variant-caps:normal;font-variant-numeric:normal;font-variant-east-asian:normal;white-space:pre;inline-size:14.4649;display:inline;fill:#03a9f5;fill-opacity:1;fill-rule:evenodd;stroke:none;stroke-width:2.5;stroke-linejoin:round;stroke-dasharray:none;stroke-opacity:1;paint-order:markers stroke fill" x="91.770622" y="204.87392" id="text5663-1" transform="matrix(9.0174475,-4.6990951,5.23604,10.14144,-1783.8371,-1474.5335)" svgjs:data="{&quot;leading&quot;:&quot;1.3&quot;}"><tspan x="91.770622" y="204.87392" id="tspan9425" svgjs:data="{&quot;leading&quot;:&quot;1.3&quot;}">&lt;</tspan></text>
    </g>
  </g>
</svg></svg></g></svg>